<?xml version="1.0" standalone="no"?>
<!DOCTYPE svg PUBLIC "-//W3C//DTD SVG 20010904//EN"
 "http://www.w3.org/TR/2001/REC-SVG-20010904/DTD/svg10.dtd">
<svg version="1.0" xmlns="http://www.w3.org/2000/svg"
 width="1300.000000pt" height="1040.000000pt" viewBox="0 0 1300.000000 1040.000000"
 preserveAspectRatio="xMidYMid meet">

<g transform="translate(0.000000,1040.000000) scale(0.100000,-0.100000)"
fill="#000000" stroke="none">
<path d="M7603 8605 c-29 -8 -71 -24 -92 -35 -54 -27 -132 -107 -171 -174 -17
-31 -35 -56 -40 -56 -5 0 -36 -26 -68 -57 -57 -56 -114 -139 -117 -172 -1 -9
-10 -34 -19 -55 -24 -53 -31 -194 -17 -297 7 -46 30 -138 52 -204 46 -135 50
-194 21 -252 -20 -38 -155 -175 -207 -209 l-26 -17 98 -101 98 -101 -102 99
-101 99 -30 -24 c-17 -13 -56 -39 -88 -58 l-57 -34 48 -19 c95 -37 161 -71
227 -115 88 -58 98 -75 17 -30 -149 83 -335 137 -477 137 -78 0 -199 -21 -266
-47 -41 -16 -201 -116 -211 -133 -3 -5 22 -23 56 -41 33 -18 91 -61 127 -96
l67 -64 -69 46 c-38 26 -94 59 -125 74 -65 33 -230 91 -257 91 -14 0 -29 -23
-58 -93 -129 -303 -296 -597 -339 -597 -6 0 0 12 14 28 67 73 185 324 294 620
l23 64 -26 -24 c-21 -18 -20 -15 4 12 18 19 42 55 54 80 59 117 195 287 265
330 18 11 59 29 90 40 32 11 64 25 72 31 7 7 28 13 47 15 52 4 156 43 197 72
41 29 59 59 59 96 0 20 -43 152 -52 162 -2 1 -14 -13 -27 -32 -23 -33 -23 -35
-6 -54 10 -11 23 -17 29 -13 6 3 8 3 4 -2 -4 -4 -2 -15 4 -24 10 -13 10 -14
-2 -4 -11 10 -19 9 -39 -10 l-26 -22 23 26 22 26 -20 18 c-11 10 -22 16 -24
14 -1 -2 -8 -13 -15 -24 -10 -17 -11 -15 -5 14 6 33 2 38 -182 222 -104 104
-194 189 -201 189 -28 0 -158 -180 -223 -310 -24 -47 -54 -100 -67 -118 -35
-47 -176 -161 -339 -275 -78 -54 -179 -128 -225 -165 -171 -137 -370 -345
-468 -488 -112 -166 -193 -432 -161 -529 11 -33 9 -42 -15 -97 -21 -47 -26
-71 -22 -105 9 -82 27 -95 217 -160 27 -9 83 -16 140 -16 84 -1 102 2 155 26
32 15 75 40 95 54 l35 26 -25 -27 c-31 -34 -78 -63 -148 -92 l-54 -22 88 -20
c211 -49 457 -55 600 -13 139 40 256 106 374 210 l75 66 -43 -52 c-24 -29 -73
-79 -108 -112 -55 -51 -64 -63 -64 -94 0 -73 69 -252 195 -506 82 -166 130
-240 285 -441 135 -176 230 -311 230 -327 0 -6 6 -16 14 -22 7 -6 33 -57 57
-111 31 -72 48 -99 58 -95 11 4 11 2 3 -8 -9 -10 -7 -30 7 -79 10 -36 21 -89
24 -119 3 -30 4 -45 1 -34 -3 11 -17 62 -31 113 -26 92 -26 92 -47 75 -21 -18
-21 -18 -2 4 18 21 17 23 -8 79 -30 66 -27 67 -123 -34 l-62 -65 -108 73 c-59
40 -118 82 -130 93 -13 11 -23 17 -23 12 0 -5 -12 3 -27 17 -16 14 -66 51
-113 84 -74 50 -335 232 -485 338 -63 44 -642 448 -715 499 -30 21 -102 72
-160 113 -58 41 -118 81 -135 91 -16 9 -64 41 -105 72 -41 31 -210 151 -375
266 -165 115 -434 303 -598 418 -165 115 -300 207 -302 205 -2 -2 13 -22 33
-44 20 -22 100 -111 176 -199 76 -88 169 -194 206 -235 66 -73 197 -222 713
-810 138 -157 278 -316 312 -355 115 -130 290 -328 516 -585 123 -141 336
-383 473 -538 l249 -283 26 23 26 23 -25 -28 c-15 -17 -21 -31 -14 -35 5 -4
73 -79 150 -167 222 -255 365 -417 400 -455 17 -19 67 -76 110 -126 44 -50
160 -182 259 -294 99 -112 224 -255 279 -318 l99 -114 813 813 813 813 -137
141 c-76 77 -155 161 -176 188 -21 26 -46 47 -55 47 -9 0 -74 -18 -146 -40
-71 -22 -133 -36 -136 -32 -4 4 -32 57 -63 117 -64 129 -175 299 -241 370 -68
73 -74 82 -38 56 18 -12 63 -56 100 -96 78 -87 73 -88 150 29 68 102 95 182
96 286 1 80 -20 179 -43 204 -5 5 -23 -2 -42 -14 -29 -20 -27 -17 11 21 78 77
131 227 131 369 0 70 -14 150 -26 150 -3 0 -27 -17 -52 -37 l-47 -38 40 45
c169 187 239 363 276 685 6 55 13 102 15 104 6 6 8 -79 5 -184 -6 -189 -88
-407 -199 -527 -22 -24 -23 -30 -13 -60 22 -63 31 -165 21 -238 -11 -75 -43
-178 -70 -222 -16 -27 -16 -31 3 -86 20 -58 24 -137 16 -277 -4 -68 -2 -74 48
-175 95 -195 257 -403 513 -662 75 -75 154 -160 175 -188 139 -178 178 -224
259 -305 101 -100 223 -180 290 -190 49 -8 113 15 216 75 122 71 165 142 124
206 l-17 25 -26 -23 c-20 -18 -22 -18 -9 -3 27 33 58 108 58 143 0 24 -8 42
-29 63 -40 39 -51 37 -52 -13 l-1 -43 -8 42 c-20 100 -68 128 -225 129 -60 1
-118 2 -128 3 -10 0 -40 22 -68 48 -58 55 -100 136 -124 243 -71 320 -133 526
-229 760 -53 128 -185 390 -197 390 -5 0 -14 -10 -20 -22 -16 -29 -98 -117
-122 -130 -10 -5 7 21 38 59 67 80 124 193 161 318 22 76 27 115 31 251 6 171
-5 258 -49 394 -35 110 -35 110 -74 51 -19 -28 -44 -56 -56 -62 -22 -12 -22
-12 -5 12 66 91 93 157 102 255 23 237 -115 415 -410 528 -38 15 -137 66 -220
114 l-150 88 -11 59 c-7 33 -15 80 -18 105 -6 43 -10 48 -74 88 -37 23 -78 52
-92 63 l-25 21 25 -14 c218 -129 280 -160 325 -160 34 0 55 7 81 27 34 26 99
138 89 154 -2 5 1 14 9 20 8 7 17 28 21 49 10 54 31 81 81 102 29 13 44 26 44
37 0 10 -22 67 -49 126 -49 105 -49 109 -36 147 39 110 44 309 10 418 l-16 54
-48 -7 c-28 -4 -99 1 -171 10 -116 16 -179 16 -225 0 l-20 -7 20 14 c15 10 73
13 232 13 198 0 213 1 239 21 60 44 84 105 70 178 -6 32 -20 44 -142 125 -158
105 -294 174 -402 202 -102 27 -232 33 -299 14z m-33 -58 c0 -2 -10 -12 -22
-23 l-23 -19 19 23 c18 21 26 27 26 19z m-80 -80 c0 -2 -10 -12 -22 -23 l-23
-19 19 23 c18 21 26 27 26 19z m-80 -80 c0 -2 -10 -12 -22 -23 l-23 -19 19 23
c18 21 26 27 26 19z m-80 -80 c0 -2 -10 -12 -22 -23 l-23 -19 19 23 c18 21 26
27 26 19z m-80 -80 c0 -2 -10 -12 -22 -23 l-23 -19 19 23 c18 21 26 27 26 19z
m-60 -60 c0 -2 -15 -16 -32 -33 l-33 -29 29 33 c28 30 36 37 36 29z m-740
-740 c0 -2 -10 -12 -22 -23 l-23 -19 19 23 c18 21 26 27 26 19z m-80 -80 c0
-2 -10 -12 -22 -23 l-23 -19 19 23 c18 21 26 27 26 19z m885 -171 c22 -159 67
-329 130 -491 6 -15 5 -17 -3 -10 -23 21 -91 196 -117 301 -25 99 -48 328 -32
313 4 -3 13 -54 22 -113z m605 -416 c-14 -61 -58 -164 -85 -195 l-17 -20 8 20
c26 69 83 248 90 285 l9 45 3 -40 c2 -22 -2 -65 -8 -95z m-625 0 c60 -60 107
-110 105 -110 -3 0 -55 50 -115 110 -60 61 -107 110 -105 110 3 0 55 -49 115
-110z m-2022 13 c-87 -130 -120 -185 -158 -261 -54 -109 -105 -226 -106 -244
0 -8 -2 -9 -5 -2 -7 17 70 216 117 301 39 71 154 233 166 233 3 0 -3 -12 -14
-27z m527 -56 c0 -2 -12 -14 -27 -28 l-28 -24 24 28 c23 25 31 32 31 24z
m1391 -92 c191 -33 384 -123 509 -235 39 -35 30 -32 -45 16 -185 117 -439 199
-657 211 -54 3 -98 10 -98 14 0 14 201 10 291 -6z m274 -35 c27 -27 47 -50 44
-50 -3 0 -27 23 -54 50 -27 28 -47 50 -44 50 3 0 27 -22 54 -50z m-1755 37 c0
-2 -10 -12 -22 -23 l-23 -19 19 23 c18 21 26 27 26 19z m-80 -80 c0 -2 -10
-12 -22 -23 l-23 -19 19 23 c18 21 26 27 26 19z m2665 -82 c28 -12 23 -13 -59
-14 -101 -1 -166 -16 -283 -65 -46 -19 -83 -31 -83 -27 0 10 95 66 154 91 93
39 200 45 271 15z m-2745 2 c0 -2 -10 -12 -22 -23 l-23 -19 19 23 c18 21 26
27 26 19z m1198 -282 c55 -61 118 -192 137 -283 7 -37 16 -139 20 -227 10
-240 33 -321 122 -416 87 -94 223 -156 395 -183 88 -13 90 -14 37 -15 -216 -4
-444 105 -528 253 -49 84 -61 151 -71 376 -9 225 -20 281 -76 395 -31 64 -76
118 -144 176 -23 19 -21 19 19 -3 24 -13 64 -45 89 -73z m1124 -290 c31 -112
35 -315 9 -435 -21 -95 -96 -266 -141 -320 l-20 -25 9 25 c5 14 23 52 40 85
105 209 126 502 56 789 -12 49 29 -55 47 -119z m-1288 -48 c52 -92 70 -173 63
-282 -5 -76 -41 -235 -52 -223 -1 1 3 32 11 68 16 78 18 215 3 294 -5 31 -23
89 -40 129 -31 78 -31 77 -24 77 2 0 20 -28 39 -63z m-210 -536 c28 -41 74
-100 101 -130 42 -46 45 -51 16 -30 -93 67 -231 265 -246 354 -7 36 -3 31 35
-40 23 -44 66 -113 94 -154z m1426 -418 c-15 -130 -16 -349 -2 -418 14 -69 7
-69 -15 1 -26 85 -25 336 1 452 10 45 21 80 24 78 2 -3 -2 -53 -8 -113z m-250
-16 c0 -2 -10 -12 -22 -23 l-23 -19 19 23 c18 21 26 27 26 19z m-80 -80 c0 -2
-10 -12 -22 -23 l-23 -19 19 23 c18 21 26 27 26 19z m-473 -107 c27 -41 67
-106 88 -145 21 -38 40 -72 42 -74 1 -2 13 4 25 15 l23 18 -21 -23 -22 -23 38
-82 c96 -207 150 -420 155 -611 4 -124 3 -126 -5 -42 -13 133 -48 297 -91 426
-56 166 -110 292 -122 284 -6 -3 -7 -1 -3 6 7 10 -58 138 -145 291 -42 72 -24
54 38 -40z m393 27 c0 -2 -10 -12 -22 -23 l-23 -19 19 23 c18 21 26 27 26 19z
m-80 -80 c0 -2 -10 -12 -22 -23 l-23 -19 19 23 c18 21 26 27 26 19z m-80 -80
c0 -2 -10 -12 -22 -23 l-23 -19 19 23 c18 21 26 27 26 19z m-160 -160 c0 -2
-10 -12 -22 -23 l-23 -19 19 23 c18 21 26 27 26 19z m-80 -80 c0 -2 -10 -12
-22 -23 l-23 -19 19 23 c18 21 26 27 26 19z m-80 -80 c0 -2 -10 -12 -22 -23
l-23 -19 19 23 c18 21 26 27 26 19z m-575 -87 c33 -33 57 -60 54 -60 -2 0 -31
27 -64 60 -33 33 -57 60 -54 60 2 0 31 -27 64 -60z m495 7 c0 -2 -10 -12 -22
-23 l-23 -19 19 23 c18 21 26 27 26 19z m-385 -117 c21 -22 37 -40 34 -40 -3
0 -23 18 -44 40 -21 22 -37 40 -34 40 3 0 23 -18 44 -40z m225 -43 c0 -2 -10
-12 -22 -23 l-23 -19 19 23 c18 21 26 27 26 19z m-155 -27 c10 -11 16 -20 13
-20 -3 0 -13 9 -23 20 -10 11 -16 20 -13 20 3 0 13 -9 23 -20z m105 -23 c0 -2
-19 -21 -42 -42 -24 -22 -35 -31 -26 -20 17 18 17 20 0 39 -17 21 -17 21 4 3
20 -16 22 -16 39 3 17 19 25 24 25 17z m-9 -74 c13 -16 12 -17 -3 -4 -10 7
-18 15 -18 17 0 8 8 3 21 -13z m-101 -36 c0 -2 -10 -12 -22 -23 l-23 -19 19
23 c18 21 26 27 26 19z m165 -27 c10 -11 16 -20 13 -20 -3 0 -13 9 -23 20 -10
11 -16 20 -13 20 3 0 13 -9 23 -20z m-245 -53 c0 -2 -10 -12 -22 -23 l-23 -19
19 23 c18 21 26 27 26 19z m325 -27 c10 -11 16 -20 13 -20 -3 0 -13 9 -23 20
-10 11 -16 20 -13 20 3 0 13 -9 23 -20z m-405 -53 c0 -2 -10 -12 -22 -23 l-23
-19 19 23 c18 21 26 27 26 19z m485 -27 c10 -11 16 -20 13 -20 -3 0 -13 9 -23
20 -10 11 -16 20 -13 20 3 0 13 -9 23 -20z m-565 -53 c0 -2 -10 -12 -22 -23
l-23 -19 19 23 c18 21 26 27 26 19z m645 -27 c10 -11 16 -20 13 -20 -3 0 -13
9 -23 20 -10 11 -16 20 -13 20 3 0 13 -9 23 -20z m-725 -53 c0 -2 -10 -12 -22
-23 l-23 -19 19 23 c18 21 26 27 26 19z m805 -27 c10 -11 16 -20 13 -20 -3 0
-13 9 -23 20 -10 11 -16 20 -13 20 3 0 13 -9 23 -20z m-885 -53 c0 -2 -10 -12
-22 -23 l-23 -19 19 23 c18 21 26 27 26 19z m965 -27 c10 -11 16 -20 13 -20
-3 0 -13 9 -23 20 -10 11 -16 20 -13 20 3 0 13 -9 23 -20z m2480 -250 c-115
-115 -212 -210 -215 -210 -3 0 90 95 205 210 115 116 212 210 215 210 3 0 -90
-94 -205 -210z m-3525 197 c0 -2 -10 -12 -22 -23 l-23 -19 19 23 c18 21 26 27
26 19z m1125 -27 c10 -11 16 -20 13 -20 -3 0 -13 9 -23 20 -10 11 -16 20 -13
20 3 0 13 -9 23 -20z m80 -80 c10 -11 16 -20 13 -20 -3 0 -13 9 -23 20 -10 11
-16 20 -13 20 3 0 13 -9 23 -20z m80 -80 c10 -11 16 -20 13 -20 -3 0 -13 9
-23 20 -10 11 -16 20 -13 20 3 0 13 -9 23 -20z m80 -80 c10 -11 16 -20 13 -20
-3 0 -13 9 -23 20 -10 11 -16 20 -13 20 3 0 13 -9 23 -20z m80 -80 c10 -11 16
-20 13 -20 -3 0 -13 9 -23 20 -10 11 -16 20 -13 20 3 0 13 -9 23 -20z m80 -80
c10 -11 16 -20 13 -20 -3 0 -13 9 -23 20 -10 11 -16 20 -13 20 3 0 13 -9 23
-20z m66 -67 c13 -16 12 -17 -3 -4 -10 7 -18 15 -18 17 0 8 8 3 21 -13z"/>
<path d="M6126 7972 c-27 -15 -51 -32 -53 -37 -2 -6 83 -96 187 -200 l190
-190 25 30 c42 51 68 112 60 143 -8 31 -33 62 -50 62 -7 0 -18 20 -24 45 -11
43 -45 74 -83 75 -7 1 -22 15 -33 33 -11 17 -33 36 -50 40 -17 5 -38 13 -47
18 -31 16 -72 9 -122 -19z"/>
<path d="M9325 4053 c-82 -25 -151 -46 -152 -47 -3 -3 42 -175 48 -180 2 -3
67 58 144 135 77 76 133 139 125 138 -8 0 -82 -21 -165 -46z"/>
</g>
</svg>
